<svg width="24" height="25" viewBox="0 0 24 25" fill="none" xmlns="http://www.w3.org/2000/svg">
<path d="M4.99988 19.5005H6.42488L16.1999 9.72549L14.7749 8.30049L4.99988 18.0755V19.5005ZM2.99988 21.5005V17.2505L16.1999 4.07549C16.3999 3.89215 16.6207 3.75049 16.8624 3.65049C17.104 3.55049 17.3582 3.50049 17.6249 3.50049C17.8915 3.50049 18.1499 3.55049 18.3999 3.65049C18.6499 3.75049 18.8665 3.90049 19.0499 4.10049L20.4249 5.50049C20.6249 5.68382 20.7707 5.90049 20.8624 6.15049C20.954 6.40049 20.9999 6.65049 20.9999 6.90049C20.9999 7.16716 20.954 7.42132 20.8624 7.66299C20.7707 7.90466 20.6249 8.12549 20.4249 8.32549L7.24988 21.5005H2.99988ZM15.4749 9.02549L14.7749 8.30049L16.1999 9.72549L15.4749 9.02549Z" fill="white" fill-opacity="0.5"/>
</svg>
