<svg width="21" height="21" viewBox="0 0 21 21" fill="none" xmlns="http://www.w3.org/2000/svg">
<path d="M4.66667 16.3338H5.85417L14 8.18799L12.8125 7.00049L4.66667 15.1463V16.3338ZM3 18.0005V14.4588L14 3.47965C14.1667 3.32688 14.3507 3.20882 14.5521 3.12549C14.7535 3.04215 14.9653 3.00049 15.1875 3.00049C15.4097 3.00049 15.625 3.04215 15.8333 3.12549C16.0417 3.20882 16.2222 3.33382 16.375 3.50049L17.5208 4.66716C17.6875 4.81993 17.809 5.00049 17.8854 5.20882C17.9618 5.41716 18 5.62549 18 5.83382C18 6.05604 17.9618 6.26785 17.8854 6.46924C17.809 6.67063 17.6875 6.85466 17.5208 7.02132L6.54167 18.0005H3ZM13.3958 7.60466L12.8125 7.00049L14 8.18799L13.3958 7.60466Z" fill="#E8EAED"/>
</svg>
