<svg width="104" height="104" viewBox="0 0 104 104" fill="none" xmlns="http://www.w3.org/2000/svg">
<g clip-path="url(#clip0_99_7)">
<mask id="mask0_99_7" style="mask-type:luminance" maskUnits="userSpaceOnUse" x="0" y="0" width="104" height="104">
<path d="M0 -8.19569e-05H104V104H0V-8.19569e-05Z" fill="white"/>
</mask>
<g mask="url(#mask0_99_7)">
<path fill-rule="evenodd" clip-rule="evenodd" d="M67.8984 53.7533C69.9046 51.6388 70.6288 49.1462 70.5314 46.4305C70.3905 42.5074 68.6006 39.1562 64.8777 37.8095C59.8 35.9725 53.7643 38.355 52.3287 44.4462C51.4034 48.3707 52.4793 51.676 55.6581 54.2365C55.7507 54.3111 55.818 54.4181 55.9773 54.6015C54.1892 54.9705 52.484 55.3178 50.781 55.6756C50.4481 55.7451 50.3023 55.5956 50.1192 55.3304C47.8549 52.0558 46.8575 48.5083 47.5681 44.5164C48.5022 39.2669 51.3533 35.5063 56.2864 33.5262C61.1662 31.5668 65.7649 32.3803 69.8277 35.6901C73.8383 38.9574 75.4563 43.3057 75.043 48.4051C74.8972 50.2027 74.3273 51.9251 73.4949 53.538C73.3181 53.8798 73.1166 54.1148 72.5635 54.0477C71.0772 53.867 69.5716 53.8468 67.8984 53.7533Z" fill="#F58335"/>
<path fill-rule="evenodd" clip-rule="evenodd" d="M81.8948 57.8779C81.2078 57.6062 81.0635 57.2783 81.0674 56.6006C81.0965 51.3029 81.0668 46.0044 81.1028 40.7061C81.1079 39.9816 80.9098 39.8097 80.224 39.852C79.2243 39.9138 78.2138 39.9243 77.2166 39.8497C76.4798 39.7943 76.3544 40.0534 76.3645 40.7299C76.4423 45.6822 76.2604 50.6369 76.5118 55.5871C76.534 56.0146 76.5489 56.3129 75.9381 56.2007C73.6419 55.7795 71.3169 55.5688 68.9882 55.4956C65.5488 55.3881 62.1259 55.6415 58.7015 56.0099C56.7905 56.2154 54.8986 56.5063 53.0009 56.7867C51.2283 57.0482 49.4571 57.318 47.6803 57.5444C45.8974 57.7722 44.1002 57.8959 42.3241 58.1648C40.1198 58.4983 37.9095 58.5149 35.6937 58.4808C35.244 58.4739 34.9736 58.2892 34.9832 57.7343C35.0162 55.791 35.0181 53.8463 34.9807 51.9036C34.9709 51.3945 35.2241 51.2295 35.61 51.1742C36.6513 51.0243 37.6976 50.913 38.7408 50.7781C40.707 50.5246 42.6744 50.2814 44.6365 50.0005C45.3548 49.8977 45.8322 49.5502 45.7314 48.6851C45.6629 48.0975 45.7185 47.495 45.7185 46.8996C45.7185 45.3515 45.7185 45.3536 44.2221 45.5084C43.8199 45.5501 43.419 45.5195 43.0102 45.5844C40.6561 45.9582 38.2958 46.2935 35.9367 46.637C35.5933 46.6871 35.3569 46.6532 35.3614 46.174C35.385 43.8229 35.3726 41.4715 35.3715 39.1198C35.3715 38.8284 35.3574 38.5803 35.7839 38.5431C36.8664 38.4478 37.9426 38.2899 39.0235 38.1781C40.9393 37.9802 42.8597 37.8234 44.7714 37.5939C45.3977 37.5184 45.7133 37.0615 45.7239 36.3975C45.74 35.3957 45.7727 34.3932 45.8432 33.394C45.87 33.0158 45.7709 32.8098 45.4061 32.9319C44.6998 33.169 43.9763 33.0569 43.2626 33.1149C40.2208 33.3614 37.178 33.6047 34.1355 33.8481C33.1403 33.9276 32.1449 34.0034 31.1497 34.0815C30.5014 34.132 30.2669 34.4095 30.2709 35.1266C30.308 41.3968 30.2924 47.6672 30.2924 53.9379C30.2924 56.4457 30.284 58.9538 30.2961 61.4622C30.302 62.7186 30.7975 63.1877 32.0521 63.1955C32.616 63.1987 33.1798 63.2135 33.744 63.2216C38.1487 63.2832 42.5336 62.937 46.8976 62.4071C48.4564 62.2179 50.0256 62.0391 51.5791 61.7386C53.4882 61.3691 55.4283 61.0912 57.3669 60.965C59.4821 60.8279 61.5966 60.6504 63.7095 60.5029C67.7222 60.2229 71.7066 60.433 75.6966 60.7559C76.2132 60.7978 76.4072 61.0367 76.3995 61.6025C76.3827 62.8543 76.1842 64.0956 75.9363 65.2929C75.0752 69.4498 73.6737 73.3971 70.9155 76.7426C68.7095 79.4173 65.9482 81.3066 62.6761 82.3548C59.6828 83.3134 56.6153 83.7764 53.427 83.3494C50.5917 82.9701 47.85 82.3258 45.2885 81.0717C39.2038 78.0933 35.1112 73.2088 32.2402 67.1719C31.9792 67.7116 31.9027 68.1129 32.0369 68.5285C33.7419 73.8119 36.7369 78.2086 41.1595 81.5802C45.5321 84.9141 50.5995 86.3466 55.9989 86.6925C60.2758 86.9663 64.3753 86.1507 68.2207 84.2273C72.3703 82.1514 75.5142 78.9992 77.6464 74.9117C79.6809 71.0099 80.6117 66.7739 80.9484 62.3388C81.7452 62.6601 82.4558 63.0905 83.1293 63.5858C85.5981 65.4005 86.9294 67.8459 86.8207 70.904C86.7166 73.8259 85.5568 76.4476 84.0909 78.9487C82.9743 80.8539 81.64 82.6029 80.2371 84.467C81.3013 84.4019 81.9026 83.8779 82.5068 83.3445C84.34 81.7274 86.0116 79.9562 87.4484 77.9804C89.4677 75.2035 91.1795 72.3045 91.2941 68.7113C91.3647 66.5023 90.7707 64.5502 89.4022 62.8494C87.4339 60.4019 84.739 59.0016 81.8948 57.8779Z" fill="#373535"/>
<path fill-rule="evenodd" clip-rule="evenodd" d="M26.5179 41.4996C26.661 39.5817 26.8069 37.6595 27.3743 35.8212C28.8655 30.9891 31.9686 27.3811 36.1482 24.661C40.196 22.0275 44.7402 20.7458 49.482 20.3469C54.4605 19.9278 59.433 20.2678 64.2672 21.6735C70.0933 23.3671 75.4437 26.0332 80.2604 29.7394C81.2753 30.5209 82.2607 31.3415 83.2911 32.1702C83.4019 31.5676 83.2878 31.1642 82.8959 30.7473C80.1635 27.8416 77.0706 25.3866 73.6657 23.3285C69.7059 20.936 65.4491 19.259 60.9327 18.2623C58.7559 17.7819 56.5451 17.3769 54.3246 17.3309C51.6082 17.2741 48.8838 17.1415 46.1625 17.4646C43.9869 17.7231 41.8295 18.0549 39.6939 18.5357C36.8299 19.1799 34.2744 20.5038 31.9099 22.1929C27.755 25.1612 24.8844 29.0846 23.1198 33.8907C21.7207 37.7008 21.6428 41.6588 21.4618 45.6138C21.2754 49.6854 21.7167 53.753 21.6397 58.0257C20.6409 55.8829 19.7294 53.9543 18.841 52.0155C16.1321 46.105 13.4442 40.1855 10.7176 34.2835C10.2616 33.2962 9.19271 33.6106 8.40285 33.5292C7.75258 33.462 6.96133 33.505 6.43371 34.0995C6.34827 34.1957 6.39003 34.4014 6.3633 34.5553C6.03362 36.4463 6.20449 38.3641 6.06542 40.2697C5.79724 43.9442 5.76929 47.6335 5.4908 51.3137C5.22053 54.8825 5.14628 58.4661 4.5292 62.0033C4.45495 62.4289 4.69483 62.4484 5.01402 62.4455C6.11137 62.4359 7.21273 62.3808 8.30501 62.4554C10.0444 62.5749 10.3329 62.0295 10.4842 60.253C10.5051 60.0041 10.4875 59.7516 10.4864 59.5008C10.4634 55.0182 10.4382 50.5357 10.4228 46.0532C10.4221 45.8824 10.3049 45.6479 10.5879 45.4998C11.1528 46.859 11.6718 48.2009 12.2623 49.5106C13.6132 52.5065 14.9642 55.5031 16.3806 58.4684C17.8097 61.4598 18.7781 63.2444 22.8287 63.0295C25.7499 62.8751 26.8851 60.4215 26.6868 58.2689C26.5813 57.1216 26.3559 55.9753 26.3622 54.8296C26.3779 52.0419 26.1204 49.2593 26.3145 46.4654C26.429 44.8161 26.3942 43.1553 26.5179 41.4996Z" fill="#373535"/>
<path fill-rule="evenodd" clip-rule="evenodd" d="M99.3868 55.5404C99.2022 52.9828 98.7224 50.518 97.9128 48.1301C96.4159 43.7145 94.0788 39.7692 90.6987 36.5123C89.5546 35.4102 88.4583 34.2152 86.8167 33.766C84.7969 33.2136 83.5393 33.8419 83.5355 35.5519C83.5177 42.3818 83.5264 49.2122 83.535 56.0421C83.5355 56.2285 83.3989 56.484 83.703 56.5998C85.1765 57.1615 86.6478 57.7277 88.1765 58.3137C88.1765 56.4735 88.2083 54.7495 88.1597 53.0282C88.1426 52.3888 88.354 52.2543 88.945 52.2707C90.4082 52.3109 91.8723 52.2836 93.4141 52.2836C93.16 51.496 92.909 50.8037 92.7192 50.095C92.5798 49.5739 92.3398 49.3562 91.7625 49.3901C90.795 49.4476 89.8196 49.3749 88.8503 49.4156C88.3077 49.4383 88.1572 49.2561 88.1651 48.7251C88.1938 46.8143 88.1765 44.9032 88.1766 42.9919V40.406C89.9555 41.8296 91.0132 43.5262 91.9956 45.2696C93.479 47.9017 94.5093 50.7224 95.3844 53.6067C96.2229 56.3702 96.7898 59.1958 96.8523 62.072C96.9196 65.1486 96.3474 68.1563 95.0895 71.1485C95.9519 70.9651 96.4926 70.5805 96.8282 69.9512C97.5524 68.5946 98.188 67.1913 98.5676 65.7C99.4171 62.3641 99.6354 58.9945 99.3868 55.5404Z" fill="#373535"/>
<path fill-rule="evenodd" clip-rule="evenodd" d="M75.9613 35.3459C75.9659 33.78 77.1794 32.5137 78.6777 32.5341C80.2345 32.5556 81.5433 34.0667 81.4751 35.4034C81.3991 36.9036 80.1271 38.1978 78.6155 38.1753C77.0994 38.1531 75.9563 36.9349 75.9613 35.3459Z" fill="#373535"/>
</g>
</g>
<defs>
<clipPath id="clip0_99_7">
<rect width="104" height="104" fill="white"/>
</clipPath>
</defs>
</svg>
