<svg width="32" height="32" viewBox="0 0 32 32" fill="none" xmlns="http://www.w3.org/2000/svg">
<path d="M15.9987 16.0002C14.532 16.0002 13.2765 15.4779 12.232 14.4335C11.1876 13.3891 10.6654 12.1335 10.6654 10.6668C10.6654 9.20016 11.1876 7.94461 12.232 6.90016C13.2765 5.85572 14.532 5.3335 15.9987 5.3335C17.4654 5.3335 18.7209 5.85572 19.7654 6.90016C20.8098 7.94461 21.332 9.20016 21.332 10.6668C21.332 12.1335 20.8098 13.3891 19.7654 14.4335C18.7209 15.4779 17.4654 16.0002 15.9987 16.0002ZM5.33203 26.6668V22.9335C5.33203 22.1779 5.52648 21.4835 5.91536 20.8502C6.30425 20.2168 6.82092 19.7335 7.46536 19.4002C8.84314 18.7113 10.2431 18.1946 11.6654 17.8502C13.0876 17.5057 14.532 17.3335 15.9987 17.3335C17.4654 17.3335 18.9098 17.5057 20.332 17.8502C21.7543 18.1946 23.1543 18.7113 24.532 19.4002C25.1765 19.7335 25.6931 20.2168 26.082 20.8502C26.4709 21.4835 26.6654 22.1779 26.6654 22.9335V26.6668H5.33203Z" fill="#FF473C"/>
</svg>
