<svg width="20" height="20" viewBox="0 0 20 20" fill="none" xmlns="http://www.w3.org/2000/svg">
<path d="M7.56291 13.5417L10.0004 12.0625L12.4379 13.5417L11.7921 10.7708L13.9587 8.89584L11.1046 8.66667L10.0004 6.04167L8.89624 8.66667L6.04207 8.89584L8.20874 10.7708L7.56291 13.5417ZM10.0004 19.4167L7.20874 16.6667H3.33374V12.7917L0.58374 10L3.33374 7.20834V3.33334H7.20874L10.0004 0.583336L12.7921 3.33334H16.6671V7.20834L19.4171 10L16.6671 12.7917V16.6667H12.7921L10.0004 19.4167ZM10.0004 17.0833L12.0837 15H15.0004V12.0833L17.0837 10L15.0004 7.91667V5H12.0837L10.0004 2.91667L7.91707 5H5.00041V7.91667L2.91707 10L5.00041 12.0833V15H7.91707L10.0004 17.0833Z" fill="#373535" fill-opacity="0.5"/>
</svg>
