<svg width="33" height="33" viewBox="0 0 33 33" fill="none" xmlns="http://www.w3.org/2000/svg">
<path d="M12.5 4.50065V1.83398H20.5V4.50065H12.5ZM15.1667 19.1673H17.8333V11.1673H15.1667V19.1673ZM16.5 29.834C14.8556 29.834 13.3056 29.5173 11.85 28.884C10.3944 28.2507 9.12222 27.3895 8.03333 26.3007C6.94444 25.2118 6.08333 23.9395 5.45 22.484C4.81667 21.0284 4.5 19.4784 4.5 17.834C4.5 16.1895 4.81667 14.6395 5.45 13.184C6.08333 11.7284 6.94444 10.4562 8.03333 9.36732C9.12222 8.27843 10.3944 7.41732 11.85 6.78398C13.3056 6.15065 14.8556 5.83398 16.5 5.83398C17.8778 5.83398 19.2 6.05621 20.4667 6.50065C21.7333 6.9451 22.9222 7.58954 24.0333 8.43398L25.9 6.56732L27.7667 8.43398L25.9 10.3007C26.7444 11.4118 27.3889 12.6007 27.8333 13.8673C28.2778 15.134 28.5 16.4562 28.5 17.834C28.5 19.4784 28.1833 21.0284 27.55 22.484C26.9167 23.9395 26.0556 25.2118 24.9667 26.3007C23.8778 27.3895 22.6056 28.2507 21.15 28.884C19.6944 29.5173 18.1444 29.834 16.5 29.834ZM16.5 27.1673C19.0778 27.1673 21.2778 26.2562 23.1 24.434C24.9222 22.6118 25.8333 20.4118 25.8333 17.834C25.8333 15.2562 24.9222 13.0562 23.1 11.234C21.2778 9.41176 19.0778 8.50065 16.5 8.50065C13.9222 8.50065 11.7222 9.41176 9.9 11.234C8.07778 13.0562 7.16667 15.2562 7.16667 17.834C7.16667 20.4118 8.07778 22.6118 9.9 24.434C11.7222 26.2562 13.9222 27.1673 16.5 27.1673Z" fill="white"/>
</svg>
