<svg width="24" height="25" viewBox="0 0 24 25" fill="none" xmlns="http://www.w3.org/2000/svg">
<path d="M7 21.5V19.5H11V16.4C10.1833 16.2167 9.45417 15.8708 8.8125 15.3625C8.17083 14.8542 7.7 14.2167 7.4 13.45C6.15 13.3 5.10417 12.7542 4.2625 11.8125C3.42083 10.8708 3 9.76667 3 8.5V7.5C3 6.95 3.19583 6.47917 3.5875 6.0875C3.97917 5.69583 4.45 5.5 5 5.5H7V3.5H17V5.5H19C19.55 5.5 20.0208 5.69583 20.4125 6.0875C20.8042 6.47917 21 6.95 21 7.5V8.5C21 9.76667 20.5792 10.8708 19.7375 11.8125C18.8958 12.7542 17.85 13.3 16.6 13.45C16.3 14.2167 15.8292 14.8542 15.1875 15.3625C14.5458 15.8708 13.8167 16.2167 13 16.4V19.5H17V21.5H7ZM7 11.3V7.5H5V8.5C5 9.13333 5.18333 9.70417 5.55 10.2125C5.91667 10.7208 6.4 11.0833 7 11.3ZM17 11.3C17.6 11.0833 18.0833 10.7208 18.45 10.2125C18.8167 9.70417 19 9.13333 19 8.5V7.5H17V11.3Z" fill="white"/>
</svg>
